<?xml version="1.0" standalone="no"?>
<!DOCTYPE svg PUBLIC "-//W3C//DTD SVG 20010904//EN"
 "http://www.w3.org/TR/2001/REC-SVG-20010904/DTD/svg10.dtd">
<svg version="1.0" xmlns="http://www.w3.org/2000/svg"
 width="1216.000000pt" height="1216.000000pt" viewBox="0 0 1216.000000 1216.000000"
 preserveAspectRatio="xMidYMid meet">
<metadata>
Created by potrace 1.14, written by Peter Selinger 2001-2017
</metadata>
<g transform="translate(0.000000,1216.000000) scale(0.100000,-0.100000)"
fill="#000000" stroke="none">
<path d="M2848 9385 c-3 -3 -140 -17 -190 -19 -10 0 -18 -3 -18 -6 0 -3 -14
-5 -30 -4 -31 1 -194 -28 -265 -47 -22 -6 -47 -13 -55 -14 -58 -13 -153 -41
-223 -67 -45 -16 -102 -37 -127 -45 -25 -9 -57 -25 -72 -35 -16 -11 -28 -17
-28 -14 0 6 -146 -67 -215 -107 -106 -64 -214 -137 -307 -210 l-97 -76 -15 32
c-8 18 -20 52 -26 77 -7 25 -15 50 -18 55 -4 6 -7 15 -8 20 -1 6 -30 91 -63
190 l-60 180 -516 3 -515 2 0 -3265 0 -3265 662 2 663 3 0 1027 c0 566 3 1029
6 1030 4 2 43 -21 88 -50 45 -28 83 -52 85 -52 2 0 41 -22 87 -48 150 -86 332
-167 501 -222 34 -12 70 -24 78 -27 8 -4 19 -5 24 -4 4 1 13 -3 20 -8 6 -5 25
-12 41 -14 30 -6 131 -30 195 -47 19 -5 51 -12 71 -15 20 -2 42 -7 50 -9 8 -3
38 -8 67 -10 29 -3 56 -7 60 -9 32 -19 612 -29 789 -13 122 10 177 16 203 21
14 2 49 7 79 10 30 3 58 8 61 10 4 3 22 6 41 9 43 6 197 41 269 62 30 8 64 17
75 19 28 6 93 30 101 38 4 4 14 7 23 7 9 0 29 7 45 15 15 8 33 15 39 15 19 0
338 161 357 180 3 3 41 29 85 59 44 30 82 57 85 60 3 3 34 31 70 61 112 95
180 169 313 340 72 93 188 309 252 472 37 93 99 296 115 378 5 25 12 56 15 70
3 14 8 41 11 60 2 19 9 58 15 86 5 28 9 55 8 60 -1 5 0 11 1 14 2 5 6 40 17
170 10 108 10 541 0 640 -10 106 -16 160 -23 200 -12 79 -15 96 -19 125 -6 42
-39 179 -60 250 -9 33 -18 65 -20 70 -1 6 -5 17 -8 25 -3 8 -13 38 -22 65 -24
75 -83 210 -133 305 -43 83 -147 250 -162 260 -4 3 -11 12 -16 21 -32 57 -253
288 -329 344 -22 17 -51 40 -65 53 -14 12 -28 22 -32 22 -3 0 -13 6 -20 13
-21 20 -127 87 -137 87 -5 0 -11 4 -13 8 -4 12 -250 134 -323 161 -33 12 -69
26 -80 31 -11 4 -49 18 -85 30 -58 18 -79 24 -130 35 -8 2 -16 4 -17 5 -3 3
-8 4 -43 13 -91 22 -164 39 -192 42 -18 3 -44 7 -58 10 -14 3 -45 8 -70 11
-25 3 -58 8 -75 11 -16 3 -48 7 -70 8 -22 2 -74 7 -115 11 -81 7 -595 15 -602
9z m307 -1170 c39 -4 77 -9 85 -10 82 -11 124 -19 175 -32 33 -8 71 -17 83
-19 13 -3 43 -11 65 -20 23 -8 53 -17 67 -20 13 -3 29 -9 36 -15 6 -5 13 -7
16 -4 3 3 11 -1 18 -10 7 -8 19 -15 28 -15 27 0 252 -134 252 -151 0 -5 5 -9
10 -9 22 0 124 -101 187 -185 24 -33 50 -67 56 -75 19 -23 108 -208 112 -233
3 -12 9 -31 14 -42 22 -49 54 -195 67 -310 9 -70 11 -371 3 -432 -18 -151 -24
-190 -33 -221 -3 -9 -7 -28 -10 -42 -8 -48 -65 -209 -96 -269 -92 -183 -222
-320 -415 -438 -77 -47 -303 -134 -382 -147 -15 -2 -28 -5 -28 -6 0 -1 -9 -3
-20 -4 -11 -2 -33 -6 -50 -9 -50 -11 -152 -25 -245 -33 -154 -13 -497 -7 -610
11 -14 2 -38 6 -55 9 -49 7 -116 20 -215 42 -93 20 -428 149 -450 174 -3 3
-16 11 -30 17 -93 45 -266 167 -385 272 l-80 70 0 776 0 777 65 60 c36 33 81
72 100 87 19 14 42 33 51 41 29 25 41 33 133 93 92 59 324 177 348 177 8 0 18
4 24 9 9 9 183 67 225 75 13 2 54 11 90 20 36 8 88 18 115 22 27 3 57 8 66 9
9 2 48 7 85 10 37 4 69 8 70 9 6 5 398 -2 458 -9z"/>
<path d="M9206 9383 c-2 -3 -35 -7 -73 -9 -37 -3 -79 -7 -93 -10 -14 -2 -45
-7 -70 -9 -25 -3 -56 -7 -70 -11 -14 -3 -36 -7 -50 -9 -20 -2 -113 -23 -175
-39 -5 -2 -23 -6 -40 -10 -53 -13 -230 -70 -235 -76 -3 -3 -14 -7 -25 -8 -38
-7 -325 -142 -325 -154 0 -4 -9 -8 -20 -8 -11 0 -20 -4 -20 -9 0 -5 -8 -12
-19 -16 -40 -13 -293 -189 -363 -253 -15 -14 -29 -24 -32 -21 -2 2 -31 90 -65
194 -35 105 -65 197 -68 205 -3 8 -7 20 -9 25 -2 6 -13 38 -25 73 l-21 62
-508 0 c-299 0 -511 -4 -515 -9 -4 -7 -7 -3174 -5 -6199 l0 -322 663 2 662 3
0 1030 c1 893 3 1030 15 1027 8 -2 17 -7 20 -10 3 -4 16 -13 30 -21 14 -8 61
-37 105 -64 242 -150 604 -298 885 -362 114 -25 204 -43 260 -49 25 -3 56 -8
69 -11 154 -31 768 -26 966 8 17 3 55 9 85 12 30 4 73 10 95 15 22 5 56 12 75
15 113 19 397 102 495 144 32 14 288 141 310 154 172 101 366 264 490 411 22
26 45 53 51 59 20 23 94 126 94 132 0 3 15 27 33 53 49 74 104 177 157 301 30
70 104 284 114 333 3 13 10 41 15 63 5 22 12 51 15 65 3 14 8 36 11 50 3 14 8
41 11 60 2 19 9 58 14 85 41 229 49 773 14 1015 -3 19 -7 49 -9 65 -7 51 -20
123 -39 225 -3 14 -15 59 -26 100 -12 41 -22 80 -23 85 -2 6 -6 16 -10 23 -5
6 -6 12 -3 12 5 0 -66 205 -82 237 -5 10 -35 70 -67 133 -103 206 -223 372
-384 530 -53 52 -111 106 -129 120 -18 14 -45 35 -60 48 -15 12 -56 41 -92 65
-36 23 -67 44 -70 47 -13 13 -308 168 -327 171 -9 2 -45 16 -78 30 -27 12
-258 87 -287 94 -122 27 -217 47 -238 51 -14 2 -38 6 -55 9 -16 3 -41 7 -55
10 -14 3 -45 7 -70 10 -25 2 -56 6 -70 9 -78 16 -740 33 -754 19z m319 -1167
c33 -4 71 -8 85 -10 14 -2 48 -7 75 -11 28 -3 88 -16 134 -27 46 -11 89 -21
95 -23 6 -1 24 -7 39 -13 16 -7 32 -12 36 -12 24 0 212 -90 286 -137 168 -108
321 -280 402 -453 38 -81 80 -196 86 -237 3 -18 7 -36 10 -40 5 -7 11 -42 23
-123 2 -14 7 -45 10 -70 15 -96 8 -440 -10 -540 -3 -14 -7 -38 -10 -55 -23
-147 -119 -407 -161 -437 -5 -4 -6 -8 -2 -8 5 0 -3 -14 -17 -31 -14 -17 -26
-35 -26 -40 0 -18 -187 -197 -249 -239 -105 -70 -336 -170 -430 -186 -7 -2
-34 -8 -60 -14 -48 -11 -60 -13 -129 -25 -111 -18 -250 -28 -427 -29 -135 -1
-184 1 -350 18 -56 6 -208 33 -236 41 -9 3 -26 7 -36 9 -19 4 -127 34 -153 42
-8 3 -17 6 -20 6 -3 0 -29 11 -57 24 -29 12 -53 21 -53 19 0 -3 -57 24 -127
60 -134 67 -300 171 -358 224 -19 17 -37 31 -40 31 -3 0 -16 9 -28 21 -12 11
-44 40 -72 65 l-50 44 0 776 -1 775 57 52 c54 50 99 89 164 140 59 48 213 144
291 183 43 21 82 43 85 47 3 5 8 8 10 7 4 -2 53 15 84 29 35 16 138 52 195 68
63 18 62 17 115 28 22 4 44 10 49 13 6 3 19 6 30 7 21 2 80 11 125 20 13 2 63
7 110 11 47 4 87 8 89 9 5 4 357 -3 417 -9z"/>
</g>
</svg>
