<svg xmlns="http://www.w3.org/2000/svg" viewBox="0 0 286.2 53.1"><g id="Layer_2" data-name="Layer 2"><g id="Layer_1-2" data-name="Layer 1"><path d="M6.9,9.3l1.26,3.78A18.4,18.4,0,0,1,20.7,8.7c11.64,0,18.06,6.12,18.06,17.1s-6.18,17.1-17.7,17.1A21,21,0,0,1,8.88,39.18V53.1H0V9.3ZM8.88,31a14.33,14.33,0,0,0,10.5,4.08c7,0,10.38-2.94,10.38-9.3,0-6.06-3.6-9.3-10.44-9.3A14.2,14.2,0,0,0,8.88,20.64Z" style="fill:#231f20"/><path d="M52.8,23.88H66.72V21.06c0-3.54-2.64-5.16-8.16-5.16-5.22,0-7.92,1.2-8.22,3.72H41.88c.24-7.14,6.18-10.92,17-10.86,10,0,16.68,4.14,16.68,10.26V42.3h-7L67.14,38c-2.88,3.12-7.8,4.86-13.44,4.86C45.24,42.9,41,39.12,41,33.18S44.82,23.88,52.8,23.88Zm13.92,5H55.14c-3.6,0-5.16,1.38-5.16,3.78s1.74,3.72,5.82,3.72c4.86,0,9.72-1.92,10.92-4.74Z" style="fill:#231f20"/><path d="M96.54,42.9c-11.16,0-17.64-4.38-17.34-11.34h8.16c0,2.76,3.42,4.5,9.72,4.5,4.68-.06,7.26-1.08,7.26-3.24,0-2.64-4-2.94-8.76-3.36-7.14-.6-16.2-1.32-16.2-10.2,0-6.54,6.06-10.56,16.74-10.56,10.2,0,16.14,3.66,16.62,10.8h-8.16c-.54-2.64-3.54-4-8.46-4s-7.8,1.44-7.8,3.6c0,3,4,3.48,8.58,3.9,7.08.66,16.26,1.14,16.26,9.36C113.16,39.06,106.92,42.9,96.54,42.9Z" style="fill:#231f20"/><path d="M137.64,35c1.8,0,5-.12,6.06-.24v7.68c-1,.18-5.82.42-7.8.42-8.58,0-13.08-3.72-13.08-10.92V15.72h-7.56V9.3h7.56V1.92L131.7,0V9.3h11.76v6.42H131.7v14C131.7,33.48,133.5,35,137.64,35Z" style="fill:#231f20"/><path d="M154.26,9.3l1.26,3.78A18.4,18.4,0,0,1,168.06,8.7c11.64,0,18.06,6.12,18.06,17.1s-6.18,17.1-17.7,17.1a21,21,0,0,1-12.18-3.72V53.1h-8.88V9.3Zm2,21.72a14.33,14.33,0,0,0,10.5,4.08c7,0,10.38-2.94,10.38-9.3,0-6.06-3.6-9.3-10.44-9.3a14.2,14.2,0,0,0-10.44,4.14Z" style="fill:#6dbe45"/><path d="M209.1,8.7c12.72,0,19.74,6.06,19.74,17s-7,17.16-19.74,17.16-19.86-6.06-19.86-17.16S196.26,8.7,209.1,8.7ZM209,35c7.26,0,10.74-3,10.74-9.3s-3.54-9.3-10.74-9.3-10.8,3.06-10.8,9.3S201.72,35,209,35Z" style="fill:#6dbe45"/><path d="M231.78,9.3H239l1.56,4.8c2.94-3.54,7.2-5.4,12.48-5.4a14.26,14.26,0,0,1,2.34.18v8.34a28.14,28.14,0,0,0-3.54-.24c-7.08,0-11.16,3.18-11.16,9.06V42.3h-8.88Z" style="fill:#6dbe45"/><path d="M280.14,35c1.8,0,5-.12,6.06-.24v7.68c-1,.18-5.82.42-7.8.42-8.58,0-13.08-3.72-13.08-10.92V15.72h-7.56V9.3h7.56V1.92L274.2,0V9.3H286v6.42H274.2v14C274.2,33.48,276,35,280.14,35Z" style="fill:#6dbe45"/></g></g></svg>