<svg id="Layer_1" data-name="Layer 1" xmlns="http://www.w3.org/2000/svg" viewBox="0 0 480 480"><path d="M113.27,159.72l4.7,14.1c10.29-8.73,24.61-16.34,46.77-16.34,43.41,0,67.35,22.83,67.35,63.78,0,41.39-23.05,63.77-66,63.77a78.25,78.25,0,0,1-45.43-13.87v51.91H87.54V159.72Zm7.38,81c11.19,10.74,23.95,15.21,39.16,15.21,26.18,0,38.72-11,38.72-34.68,0-22.6-13.43-34.69-38.94-34.69-15.22,0-28.42,4.93-38.94,15.44Z" style="fill:#fff"/><path d="M272.81,159.72l4.7,14.1c10.3-8.73,24.62-16.34,46.77-16.34,43.41,0,67.36,22.83,67.36,63.78,0,41.39-23.05,63.77-66,63.77a78.24,78.24,0,0,1-45.42-13.87v51.91H247.08V159.72Zm7.39,81c11.19,10.74,23.94,15.21,39.16,15.21,26.18,0,38.71-11,38.71-34.68,0-22.6-13.43-34.69-38.94-34.69-15.21,0-28.41,4.93-38.93,15.44Z" style="fill:#6dbe45"/></svg>