<svg viewBox="0 0 286.2 53.1" xmlns="http://www.w3.org/2000/svg"><g fill="#fff"><path d="m6.9 9.3 1.26 3.78a18.4 18.4 0 0 1 12.54-4.38c11.64 0 18.06 6.12 18.06 17.1s-6.18 17.1-17.7 17.1a21 21 0 0 1 -12.18-3.72v13.92h-8.88v-43.8zm1.98 21.7a14.33 14.33 0 0 0 10.5 4.08c7 0 10.38-2.94 10.38-9.3 0-6.06-3.6-9.3-10.44-9.3a14.2 14.2 0 0 0 -10.44 4.16z"/><path d="m52.8 23.88h13.92v-2.82c0-3.54-2.64-5.16-8.16-5.16-5.22 0-7.92 1.2-8.22 3.72h-8.46c.24-7.14 6.18-10.92 17-10.86 10 0 16.68 4.14 16.68 10.26v23.28h-7l-1.42-4.3c-2.88 3.12-7.8 4.86-13.44 4.86-8.46.04-12.7-3.74-12.7-9.68s3.82-9.3 11.8-9.3zm13.92 5h-11.58c-3.6 0-5.16 1.38-5.16 3.78s1.74 3.72 5.82 3.72c4.86 0 9.72-1.92 10.92-4.74z"/><path d="m96.54 42.9c-11.16 0-17.64-4.38-17.34-11.34h8.16c0 2.76 3.42 4.5 9.72 4.5 4.68-.06 7.26-1.08 7.26-3.24 0-2.64-4-2.94-8.76-3.36-7.14-.6-16.2-1.32-16.2-10.2 0-6.54 6.06-10.56 16.74-10.56 10.2 0 16.14 3.66 16.62 10.8h-8.16c-.54-2.64-3.54-4-8.46-4s-7.8 1.44-7.8 3.6c0 3 4 3.48 8.58 3.9 7.08.66 16.26 1.14 16.26 9.36 0 6.7-6.24 10.54-16.62 10.54z"/><path d="m137.64 35c1.8 0 5-.12 6.06-.24v7.68c-1 .18-5.82.42-7.8.42-8.58 0-13.08-3.72-13.08-10.92v-16.22h-7.56v-6.42h7.56v-7.38l8.88-1.92v9.3h11.76v6.42h-11.76v14c0 3.76 1.8 5.28 5.94 5.28z"/></g><path d="m154.26 9.3 1.26 3.78a18.4 18.4 0 0 1 12.54-4.38c11.64 0 18.06 6.12 18.06 17.1s-6.18 17.1-17.7 17.1a21 21 0 0 1 -12.18-3.72v13.92h-8.88v-43.8zm2 21.72a14.33 14.33 0 0 0 10.5 4.08c7 0 10.38-2.94 10.38-9.3 0-6.06-3.6-9.3-10.44-9.3a14.2 14.2 0 0 0 -10.44 4.14z" fill="#6dbe45"/><path d="m209.1 8.7c12.72 0 19.74 6.06 19.74 17s-7 17.16-19.74 17.16-19.86-6.06-19.86-17.16 7.02-17 19.86-17zm-.1 26.3c7.26 0 10.74-3 10.74-9.3s-3.54-9.3-10.74-9.3-10.8 3.06-10.8 9.3 3.52 9.3 10.8 9.3z" fill="#6dbe45"/><path d="m231.78 9.3h7.22l1.56 4.8c2.94-3.54 7.2-5.4 12.48-5.4a14.13 14.13 0 0 1 2.33.18v8.34a28 28 0 0 0 -3.54-.24c-7.07 0-11.15 3.18-11.15 9.06v16.26h-8.88z" fill="#6dbe45"/><path d="m280.14 35c1.8 0 5-.12 6.06-.24v7.68c-1 .18-5.82.42-7.8.42-8.58 0-13.08-3.72-13.08-10.92v-16.22h-7.56v-6.42h7.56v-7.38l8.88-1.92v9.3h11.8v6.42h-11.8v14c0 3.76 1.8 5.28 5.94 5.28z" fill="#6dbe45"/></svg>