<svg xmlns="http://www.w3.org/2000/svg" viewBox="0 0 304.1 165.59"><g id="Layer_2" data-name="Layer 2"><g id="Layer_1-2" data-name="Layer 1"><path d="M25.73,2.24l4.7,14.1C40.72,7.61,55,0,77.2,0c43.41,0,67.35,22.83,67.35,63.78,0,41.39-23.05,63.77-66,63.77a78.22,78.22,0,0,1-45.43-13.87v51.91H0V2.24Zm7.38,81C44.3,94,57.06,98.45,72.27,98.45c26.18,0,38.72-11,38.72-34.68,0-22.6-13.43-34.69-38.94-34.69-15.22,0-28.42,4.93-38.94,15.44Z" style="fill:#231f20"/><path d="M185.27,2.24l4.7,14.1C200.27,7.61,214.59,0,236.74,0c43.41,0,67.36,22.83,67.36,63.78,0,41.39-23.05,63.77-66,63.77a78.26,78.26,0,0,1-45.42-13.87v51.91H159.54V2.24Zm7.39,81C203.85,94,216.6,98.45,231.82,98.45c26.18,0,38.71-11,38.71-34.68,0-22.6-13.43-34.69-38.94-34.69-15.21,0-28.41,4.93-38.93,15.44Z" style="fill:#6dbe45"/></g></g></svg>